<svg xmlns="http://www.w3.org/2000/svg" width="392.691" height="414.233" viewBox="0 0 392.691 414.233">
  <g id="Page-1" transform="translate(-74.77 -0.278)">
    <g id="Desktop-HD" transform="translate(-96 -1055)">
      <g id="_2792208" data-name="2792208" transform="translate(96 1055)">
        <g id="Character_2" transform="translate(208)">
          <g id="Character_3">
            <g id="_Grupo_14">
              <g id="_Grupo_15">
                <path id="_Trazado_14" d="M26.508,94.874,12.594,142.51,27.8,150.384l11.857-39.706Z"
                      fill="#ffa8a7"/>
                <path id="_Trazado_15"
                      d="M42.021,76.119c-7.381.8-13.831,7.482-16.792,17.958s-6.95,26.769-6.95,26.769,8.09,8.909,19.072,6.21Z"
                      fill="#e6e6e6"/>
                <g id="_Grupo_16" transform="translate(0 349.933)">
                  <path id="_Trazado_16"
                        d="M23.047,2.308V.294c-.82,2.35-4.643,12.433-10.259,17.426C8.313,21.692,2.238,26.265.639,30.755s8.257,6.391,12.385,5.72c4.8-.769,11.023-3.4,14.457-7.51,2.419-2.9,3.976-6.336,5.713-8.615s5.658-4.783,6.617-7.426c.528-1.4,0-4.671-.681-7.384S37.865.294,37.017.517V2.042c-1.029,1.119-3.85,2.2-7.02,2.266C27.954,4.364,23,3.874,23.047,2.308Z"
                        fill="#263238"/>
                </g>
                <g id="_Grupo_17" transform="translate(6.95 337.345)">
                  <path id="_Trazado_17"
                        d="M1.821,33.8c1.39-1.2,2.78-2.378,4.045-3.51,3.92-3.482,6.95-9.468,8.73-13.552A19.485,19.485,0,0,0,16.18,9.37l.125-8.014L30.957.671l-.89,13.986h0v.336h-.083c-.709,2.909-7.242,10.573-10.968,15.58-2.488,3.357-7.2,7.594-12.747,8.252C1,39.468-1.654,37.762,1.821,33.8Z"
                        fill="#ffa8a7"/>
                </g>
                <g id="_Grupo_18" transform="translate(80.623 348.534)">
                  <path id="_Trazado_18"
                        d="M13.873,6.266l-.528-1.93c-.139,2.475-.973,13.245-4.963,19.58C5.2,28.992.653,35.1.361,39.859s9.73,3.79,13.5,1.986c4.393-2.112,9.633-6.4,11.774-11.314,1.5-3.454,2.043-7.2,3.058-9.874s4.1-6.2,4.281-9.007c.1-1.552-1.39-4.475-2.78-6.895S27.509.084,26.759.559c.07.294.4,1.482.4,1.482-.681,1.4-3.086,3.189-6.1,4.2C19.169,6.853,14.276,7.79,13.873,6.266Z"
                        fill="#263238"/>
                </g>
                <g id="_Grupo_19" transform="translate(84.794 337.345)">
                  <path id="_Trazado_19"
                        d="M1.307,39.65c.987-1.552,2-3.077,2.9-4.5C6.992,30.671,8.243,24.083,8.8,19.664a19.344,19.344,0,0,0-.556-7.524L6.13,4.42,19.586.671l3.461,12.587h0l.083.336h0c.125,2.993-3.989,12.2-6.172,18.056-1.39,3.93-4.768,9.329-9.925,11.538C2.113,45.314-.917,44.433,1.307,39.65Z"
                        fill="#ffa8a7"/>
                </g>
                <g id="_Grupo_20" transform="translate(20.851 144.053)">
                  <path id="_Trazado_20"
                        d="M66.111,5.477c7.757,10.014,9.16,20.363,7.465,49.635s-2.224,53.775-1.793,55.426,6.728,15.091,9.035,25.958c2.711,12.713,3.378,59.887,3.378,59.887a13.94,13.94,0,0,1-13.5,3.622S48.233,124.034,46.05,117.489,30.067,41.518,30.067,41.518l2.1-39.16Z"
                        fill="#37474f"/>
                  <path id="_Trazado_21"
                        d="M6.853,39.169c1.182-13.524,4.059-36.95,4.059-36.95L45.274.191c5.56,8.727,3.142,23.244,1.626,36.363L27.245,113.965c.4,3.706,3.8,11.566,0,31.5-4.17,22.251-10.078,51.566-10.078,51.566s-7.4,3.427-14.8.294c0,0-2.78-70.5-1.029-89.761C3.35,86.734,6.047,48.413,6.853,39.169Z"
                        fill="#37474f"/>
                  <path id="_Trazado_22"
                        d="M36.086,71.993,30.526,43.6A60.594,60.594,0,0,1,16.5,36.4a42.817,42.817,0,0,0,9.814,9.1Z"
                        fill="#263238"/>
                </g>
                <path id="_Trazado_23"
                      d="M27.8,71.812H55.477a33.966,33.966,0,0,0,33.862-34.07h0a31.047,31.047,0,0,0-9-21.894,30.667,30.667,0,0,0-21.757-9.07h0A30.871,30.871,0,0,0,27.8,37.742Z"
                      fill="#272727"/>
                <path id="_Trazado_24"
                      d="M84.182,77.1c5.338.266,9.272,1.273,12.9,11.832s11.19,51.09,8.66,55.314l-16.875-7.161L84.7,114.832C75.091,106.594,75.633,80.063,84.182,77.1Z"
                      fill="#ffa8a7"/>
                <g id="_Grupo_21" transform="translate(28.908 74.413)">
                  <path id="_Trazado_25"
                        d="M5.024,49.887c-.848,7.9-4,37.076-4,37.076,25.9,13.9,58.021,4.7,62.942-1.035-4.448-14.755-9.244-23.146-12.914-27.076l4.671-18.433S44.154,23.776,55.274,2.657L41.54,1.524,21.371.937c-4.823.266-8.257.741-8.257.741-3.1,2.909-7.965,10.895-11.12,19.035C-.05,25.986-2.246,34.363,5.024,49.887Z"
                        fill="#f5f5f5"/>
                </g>
                <g id="_Grupo_22" transform="translate(77.843 76.922)">
                  <path id="_Trazado_26"
                        d="M6.339.177c6.075-.35,9.73,1.161,14.109,10.979s7.923,33.79,7.923,33.79-3.711,7.594-22.06,5.44L3.531,33.742S-4.559,16.442,6.339.177Z"
                        fill="#e6e6e6"/>
                </g>
                <path id="_Trazado_27"
                      d="M82.278,124.1c-.222.909-6.3,8.979-9.272,10.881s5.282,4.531,6.436,9.259c2.349,9.538-4.476,19.832-27.648,20.461-5.477.14-5.713,1.315-2.877,2.993,20.587,3.413,40.2-2.979,43.954-7.357-4.448-14.755-9.244-23.146-12.914-27.076Z"
                      fill="#e6e6e6"/>
                <g id="_Grupo_23" transform="translate(31.688 19.868)">
                  <path id="_Trazado_28"
                        d="M7.109.392C3.856,2.322-.161,10.545.228,27.79.575,42.4,5.274,45.971,7.637,47.062s6.95.406,11.357-.336V55.5a7,7,0,0,0,2.78,4.629c3.6,2.28,7.882,1.4,10.286.545,5.3-1.916,6.353-4.545,6.353-4.545l-.1-20.167s2.6,2.559,7.02-1.4c3.656-3.2,4.893-8.615,2.043-11.524a6.333,6.333,0,0,0-10.12,2.028s-2.6.21-5.2-4.643c0,0,.083-13.2-2.78-14.923C19.939.1,13.364.392,7.109.392Z"
                        fill="#ffa8a7"/>
                </g>
                <g id="_Grupo_24" transform="translate(47.262 40.847)">
                  <path id="_Trazado_29"
                        d="M.876,2.21A1.821,1.821,0,1,0,2.794.392,1.882,1.882,0,0,0,.876,2.21Z"
                        fill="#263238"/>
                </g>
                <g id="_Grupo_25" transform="translate(43.092 56.231)" opacity="0.5"
                   style="mix-blend-mode: multiply;isolation: isolate">
                  <path id="_Trazado_30"
                        d="M4.559.14.32,1.538A2.194,2.194,0,0,0,1.384,2.9,2.171,2.171,0,0,0,3.1,3.063,2.353,2.353,0,0,0,4.559.14Z"
                        fill="#f28f8f"/>
                </g>
                <g id="_Grupo_26" transform="translate(33.361 33.566)">
                  <path id="_Trazado_31"
                        d="M.806,3.757,4.5,1.183A2.133,2.133,0,0,0,1.446.54a2.4,2.4,0,0,0-.64,3.217Z"
                        fill="#263238"/>
                </g>
                <g id="_Grupo_27" transform="translate(50.042 34.964)">
                  <path id="_Trazado_32"
                        d="M.639,1.645,4.81,3.267A2.158,2.158,0,0,0,3.6.358,2.358,2.358,0,0,0,.639,1.645Z"
                        fill="#263238"/>
                </g>
                <g id="_Grupo_28" transform="translate(33.078 40.559)">
                  <path id="_Trazado_33"
                        d="M.27,2.107A1.835,1.835,0,1,0,2.2.288a1.856,1.856,0,0,0-1.343.5A1.879,1.879,0,0,0,.27,2.107Z"
                        fill="#263238"/>
                </g>
                <g id="_Grupo_29" transform="translate(36.141 40.847)" opacity="0.5"
                   style="mix-blend-mode: multiply;isolation: isolate">
                  <path id="_Trazado_34" d="M6.492.769,6.2,11.832l-5.783-1.8Z" fill="#f28f8f"/>
                </g>
                <g id="_Grupo_30" transform="translate(50.042 59.029)" opacity="0.5"
                   style="mix-blend-mode: multiply;isolation: isolate">
                  <path id="_Trazado_35"
                        d="M.639,7.566C5.31,6.951,14.929,4.168,16.417.35a9.917,9.917,0,0,1-3.364,4.867C10.175,7.692.639,10.489.639,10.489Z"
                        fill="#f28f8f"/>
                </g>
                <path id="_Trazado_36"
                      d="M63.025,8.428,63.734.316a3.9,3.9,0,0,0-2.981.817,3.951,3.951,0,0,0-1.467,2.736,4.189,4.189,0,0,0,3.739,4.559Z"
                      fill="#263238"/>
                <path id="_Trazado_37"
                      d="M63.456,9.253l6.533-4.811a3.919,3.919,0,0,0-5.56-1.035,4.325,4.325,0,0,0-.973,5.846Z"
                      fill="#263238"/>
                <path id="_Trazado_38"
                      d="M68.933,44.987v7.72h0a5.169,5.169,0,0,1-3.68-1.528,5.233,5.233,0,0,1-1.519-3.7V40.386Z"
                      fill="#263238"/>
                <path id="_Trazado_39"
                      d="M48.138,8.61h0a25.749,25.749,0,0,0-18.273,7.607A26.066,26.066,0,0,0,22.3,34.6v3.371H34.95A11.784,11.784,0,0,0,46.6,27.728h0l.473,10.238h0a9.364,9.364,0,0,0,9.313-8.587l.153-1.678h0A11.148,11.148,0,0,0,67.571,37.966h1.112L69.975,19.6Z"
                      fill="#272727"/>
                <path id="_Trazado_compuesto_"
                      d="M72.978,41.518H58.535A6.083,6.083,0,0,0,52.6,36.679h-.931a6.089,6.089,0,0,0-5.56,3.776A5.184,5.184,0,0,0,42.577,38.9a4.485,4.485,0,0,0-3.128.937,6.027,6.027,0,0,0-5.282-3.161h-.931a6.1,6.1,0,1,0,0,12.2h.931a6.042,6.042,0,0,0,4.286-1.786,6.117,6.117,0,0,0,1.775-4.312,5.864,5.864,0,0,0-.348-1.93,3.324,3.324,0,0,1,2.641-.909,4.023,4.023,0,0,1,3.211,1.636h0a5.965,5.965,0,0,0-.125,1.231,6.093,6.093,0,0,0,6.061,6.1H52.6a6.079,6.079,0,0,0,6.061-6.1v-.224H70.949a6.936,6.936,0,0,1,2.029-1.064ZM34.126,47.84h-.931a5.063,5.063,0,1,1,0-10.126h.931a5.063,5.063,0,1,1,0,10.126Zm18.474,0h-.931a5.063,5.063,0,1,1,0-10.126H52.6a5.063,5.063,0,0,1,0,10.126Z"
                      fill="#455a64"/>
              </g>
              <g id="_Grupo_31" transform="translate(2.78 126.16)">
                <path id="_Trazado_40"
                      d="M102.962,18.084c-3.767,4.42-37.99,36.363-37.99,36.363L66.153,35.16,86.086,10.937Z"
                      fill="#ffa8a7"/>
                <g id="_Grupo_32">
                  <g id="_Grupo_33">
                    <g id="_Grupo_34">
                      <path id="_Trazado_41"
                            d="M36.85,69.2l11.593-8.28c11.12-7.9,24.284-20.321,24.284-34.6A21.3,21.3,0,0,0,54.657,5.8C45.51,4.573,37.976,13.636,36.809,22.363c-1.14-9.035-8.7-20.126-17.848-21.342A15.336,15.336,0,0,0,6.27,4.582,15.539,15.539,0,0,0,.959,16.713C.959,31.02,14.137,46.95,25.174,57.8Z"
                            fill="#2a89f5"/>
                    </g>
                  </g>
                </g>
                <path id="_Trazado_42"
                      d="M68.391,40.782c-4.657,2.8-12.608,2.9-17.96,3.133s-11.968,8.475-7.618,11.8a18.592,18.592,0,0,0,22.158-1.287Z"
                      fill="#ffa8a7"/>
                <path id="_Trazado_43"
                      d="M1.571,21.944C.292,22.979-.083,26.349.7,29.93s3.79,9.16,8.071,10.852c1.96.783,10.481,1.035,14.582-3.4,4.337-4.7,3.989-12.741-2.252-11.314a66.793,66.793,0,0,1-18.071.923,36.674,36.674,0,0,1-1.459-5.047Z"
                      fill="#ffa8a7"/>
              </g>
            </g>
          </g>
        </g>
        <g id="Character_3-2" transform="translate(281 1)">
          <g id="Character_2-2">
            <g id="_Grupo_35">
              <g id="_Grupo_36" transform="translate(122.86 362.891)">
                <g id="_Grupo_37" transform="translate(21.999)">
                  <rect id="_Rectángulo_" width="13.734" height="20.106" transform="translate(0.134)"
                        fill="#ffa8a7"/>
                </g>
                <g id="_Grupo_38" transform="translate(0 11.209)">
                  <path id="_Trazado_44"
                        d="M22.133,2.074V.112c-1.309.574-4.374,12.288-9.82,17.276C8,21.367,2.089,25.949.585,30.376s8.218,7.16,12.271,6.431c4.694-.841,12.842-4.2,14.89-7.244s3-7.65,4.666-9.906,5.488-4.792,6.379-7.4c.5-1.4-.084-4.6-.78-7.258C37.37,2.561,36.688-.129,35.852.109v1.5C34.864,2.718,32.106,3.825,29,3.951,27.036,4.021,22.119,3.629,22.133,2.074Z"
                        fill="#263238"/>
                </g>
              </g>
              <g id="_Grupo_39" transform="translate(51.823 347.188)">
                <g id="_Grupo_40" transform="translate(32.036)">
                  <path id="_Trazado_45" d="M14.319,20.425.6,20.9,1.769.571,15.489.095Z"
                        fill="#ffa8a7"/>
                </g>
                <g id="_Grupo_41" transform="translate(0 15.703)">
                  <path id="_Trazado_46"
                        d="M32.886.939c-.724,0-1.268,1.037-2.786,2.8a29.716,29.716,0,0,1-8.065,5.843C16.9,12.176,6.895,16.155,2.382,18.2-.4,19.49-.32,22.922,2.6,24.87s9.973,3.363,18.442,1.4c4.61-1.037,10.614-5.324,14.416-5.086s10.906.168,13.706-1.779,1.685-6.095.891-9.668c-.864-3.9-2.1-9.99-3.385-9.724l-.084,1.625C44.934,4.161,36.452,4.666,32.83,2.816Z"
                        fill="#263238"/>
                </g>
              </g>
              <g id="_Grupo_42" transform="translate(0 70.056)">
                <path id="_Trazado_47"
                      d="M100.351,35.322c-6.2,5.983-42.72,25.22-44.725,24.87-3.009-.42-13.929-11.209-23.261-21.185-1.463-7.594-3.608-17.164-6-22.516a25.658,25.658,0,0,0-5.39-8.407L21.6,5.506,56.949,39.133S95.741,9.71,101.521,8.028,106.55,29.34,100.351,35.322Z"
                      fill="#f28f8f"/>
                <path id="_Trazado_48"
                      d="M7.822,1.079C3.086,2.27-.535,5.492.259,10.649c.515,3.391,6.087,5.871,9.082,3.293,2.41-2.088,9.625-7.09,12.926-4.526A8.226,8.226,0,0,1,23,14.333c-.223,2.69,1.142,4.61,1.95,4.484s2.061-4.414,2.187-6.095c.181-2.606-1.3-10.256-12.87-11.8h0a17.435,17.435,0,0,0-6.445.157Z"
                      fill="#ffa8a7"/>
              </g>
              <g id="_Grupo_43" transform="translate(157.396 125.81)">
                <path id="_Trazado_49"
                      d="M28.827,31.13C28.52,26.926,21.459,7.9,17.948.039L.161,8.445,6.973,24.138,25.4,38.457C30.178,37.7,28.966,32.9,28.827,31.13Z"
                      fill="#ffa8a7"/>
              </g>
              <g id="_Grupo_44" transform="translate(79.681 168.135)">
                <path id="_Trazado_50"
                      d="M71.719.21c0,13.185,1.7,98.485,1.7,98.485.32,3.783,5.126,16.267,5.572,33.907.557,19.812,1.142,64.452,1.142,64.452s-6.435,6.417-15.517,0c0,0-14.973-65.208-19.584-89.98-2.145-17.122-7.508-66.231-7.508-66.231l-11.143,55.9A127.651,127.651,0,0,1,27.774,116.6c0,9.107-7.9,68.179-7.9,68.179s-7.758,4.736-15.2.252c0,0-4.471-79.962-4.6-88.271C-.07,86.589,7.424.2,7.424.2Z"
                      fill="#37474f"/>
                <path id="_Trazado_51"
                      d="M37.566,40.871l-1.6-11.938s-10.349-4.778-13.929-8.169c0,0,6.5,8.645,10.6,11.055L27.621,90.961Z"
                      fill="#263238"/>
              </g>
              <g id="_Grupo_45" transform="translate(66.858 75.661)">
                <path id="_Trazado_52"
                      d="M39.859.673c-7.145,0-16.715,6.333-24.793,12.61S.273,24.73.273,24.73c1.393,7.594,6.2,14.544,11.38,20.232l23-12.54S44.678,11.882,39.859.673Z"
                      fill="#e6e6e6"/>
                <path id="_Trazado_53"
                      d="M63.872,1.359C76.185,4.343,91.8,9.345,97.3,20.751s13.929,29.9,13.929,29.9A49.777,49.777,0,0,1,90.852,62.77L84.6,51.814v40.87c-9.625,10.522-43.179,15.412-64.2,0V25.43C20.4,14.67,26.334,1.751,42.686.785Z"
                      fill="#f5f5f5"/>
                <path id="_Trazado_54" d="M84.542,51.814s-6.17-10.761-7.508-13.353l7.508,25.991Z"
                      fill="#e6e6e6"/>
              </g>
              <g id="_Grupo_46" transform="translate(80.787)">
                <g id="_Grupo_47">
                  <g id="_Grupo_48" transform="translate(51.823 21.017)">
                    <path id="_Trazado_55"
                          d="M2.744.953A7.287,7.287,0,0,1,8.8,3.1c2.591,2.676,2.061,7.622,0,19l-8.02.92Z"
                          fill="#272727"/>
                  </g>
                  <g id="_Grupo_49" transform="translate(0 16.813)">
                    <path id="_Trazado_56"
                          d="M7.725,1.863A12.348,12.348,0,0,1,2.7.841C.231-.56-.41,2.242.941,4.694a11.489,11.489,0,0,0,9.318,6.235c.07-.35,2.312-6.3,2.312-6.3Z"
                          fill="#272727"/>
                  </g>
                  <g id="_Grupo_50" transform="translate(8.357 12.61)">
                    <path id="_Trazado_57"
                          d="M42.449,31.5c1.184.715,2.883-1.6,4.36-3.139s6.268-3.671,8.664,1.4-3.092,12.05-6.352,14.319c-3.858,2.7-6.672.588-6.672.588l-.864,19.784S37.323,74.946,25.776,76.529,16.6,68.473,20.358,63.723V56.535s-5.962,1.177-8.789.448a13.037,13.037,0,0,1-8.552-8.855A70.455,70.455,0,0,1,1.081,15.594C4.006-2.354,24.133-2.62,35.415,4.484S42.449,31.5,42.449,31.5Z"
                          fill="#ffa8a7"/>
                  </g>
                  <g id="_Grupo_51" transform="translate(3.073)">
                    <path id="_Trazado_58"
                          d="M47.734,46.069c.6,0,2.869-3.8,4.36-5.156,2.061-1.892-.6-18.943-.6-18.943s2.089-6.459-1.978-10.747S37.566,7.65,31.8,7.44a51.359,51.359,0,0,1-20.587-4.2c-8.19-3.59-8.8-4.011-9.75-.4S.07,14.74,4.945,20.288L9,21.787s2.2,1.962,9.834,2.9,19.5-.182,21.144-.406c2.215-.308,2.688,1.849,3.872,7.748C44.837,37.256,45.714,46.027,47.734,46.069Z"
                          fill="#272727"/>
                  </g>
                  <g id="_Grupo_52" transform="translate(53.216 16.813)">
                    <path id="_Trazado_59"
                          d="M1.337,6.487l7.215-3.9A3.973,3.973,0,0,0,3.092.771,4.357,4.357,0,0,0,1.337,6.487Z"
                          fill="#272727"/>
                  </g>
                  <g id="_Grupo_53" transform="translate(28.144 59.814)">
                    <path id="_Trazado_60"
                          d="M.571,9.387s10.7-2.172,14.43-4.2A12.251,12.251,0,0,0,20.169.042a16.967,16.967,0,0,1-2.925,6.067C14.458,9.625.529,12.217.529,12.217Z"
                          fill="#f28f8f"/>
                  </g>
                </g>
                <g id="_Grupo_54" transform="translate(10.037 30.534)">
                  <g id="_Grupo_55" transform="translate(20.893 8.407)">
                    <path id="_Trazado_61"
                          d="M.418,2.364a2.193,2.193,0,0,0,.607,1.558,2.167,2.167,0,0,0,1.524.67A2.227,2.227,0,0,0,4.678,3.275,2.252,2.252,0,0,0,4.252.8,2.219,2.219,0,0,0,1.808.276,2.242,2.242,0,0,0,.418,2.364Z"
                          fill="#263238"/>
                  </g>
                  <g id="_Grupo_56" transform="translate(23.679 0.291)">
                    <path id="_Trazado_62"
                          d="M.293,1.611,4.875,4.147A2.811,2.811,0,0,0,3.8.476,2.542,2.542,0,0,0,.293,1.611Z"
                          fill="#263238"/>
                  </g>
                  <g id="_Grupo_57" transform="translate(16.428 25.22)">
                    <path id="_Trazado_63"
                          d="M5.036.221.147,2.07A2.574,2.574,0,0,0,1.462,3.591a2.549,2.549,0,0,0,2,.1A2.807,2.807,0,0,0,5.036.221Z"
                          fill="#f28f8f"/>
                  </g>
                  <g id="_Grupo_58">
                    <path id="_Trazado_64"
                          d="M1.449,4.62,5.627,1.37A2.539,2.539,0,0,0,1.992.809,2.813,2.813,0,0,0,1.449,4.62Z"
                          fill="#263238"/>
                  </g>
                  <g id="_Grupo_59" transform="translate(2.786 7.296)">
                    <path id="_Trazado_65"
                          d="M.7,2.914A2.145,2.145,0,1,0,2.841.659,2.222,2.222,0,0,0,.7,2.914Z"
                          fill="#263238"/>
                  </g>
                  <g id="_Grupo_60" transform="translate(6.964 7.296)">
                    <path id="_Trazado_66" d="M7.438.869l-.71,12.974L0,11.531Z" fill="#f28f8f"/>
                  </g>
                </g>
              </g>
              <g id="_Grupo_61" transform="translate(51.823 120.497)">
                <g id="_Grupo_62">
                  <g id="_Grupo_63">
                    <path id="_Trazado_67"
                          d="M29.083,58.189l9.207-4.932c8.789-4.708,19.277-12.694,19.277-24.029,0-7.944-6.393-16.365-14.291-18.817C36.02,8.155,30.031,14.277,29.111,21.045,28.206,13.7,22.216,3.853,14.946,1.6,7.062-.869.669,3.587.669,11.517c0,11.349,10.447,25.851,19.222,36.009Z"
                          fill="#2a89f5"/>
                  </g>
                </g>
              </g>
              <g id="_Grupo_64" transform="translate(82.467 144.316)">
                <path id="_Trazado_68"
                      d="M100.329,19.924,81.9,5.6s-37.148,6.081-41.508,6.417-8.2-2.97-9.862-7.272S26.27.911,26.27.911a16.642,16.642,0,0,1,.418,7.412c-1.5,1.625-10.1,3.251-15.893,1.275s-14.193.9-9,8.827,15.322,8.869,22.286,8.869a72.484,72.484,0,0,0,8.775-.588c2.27-.294,4.541-.532,6.825-.687C54.113,24.982,93.8,22,100.329,19.924Z"
                      fill="#ffa8a7"/>
              </g>
            </g>
          </g>
        </g>
        <g id="Character_1" transform="translate(74 8)">
          <g id="Character_1-2">
            <g id="Character2">
              <path id="_Trazado_69"
                    d="M59.506,70.332c12.726-2.321,13.286-.573,53.339,21.827,0,0,47.171-19.128,52.765-22.372s13.607-5.383,19.579-1.734a15.386,15.386,0,0,0-4.265.727c-.685.336-2.979,1.51-2.685,2.559.112.447.657.587,1.119.615a12.029,12.029,0,0,0,2.923-.14c1.119-.2,2.447-.475,3.217.35a2.027,2.027,0,0,1-.112,2.545,5.972,5.972,0,0,1-2.266,1.552l-4.2,1.944a14.993,14.993,0,0,0-2.9,1.608c-.825.615-1.524,1.4-2.377,2-2.657,1.832-5.776.881-8.559,2.069-.475.2-.951.447-1.4.657-2.056.979-4.014,2.125-5.972,3.286-5.706,3.384-11.286,6.991-16.88,10.543s-10.894,6.991-16.516,10.165a27.1,27.1,0,0,1-6.587,3.132c-6.992,1.692-47.171-15.772-47.171-15.772Z"
                    fill="#9e6767"/>
              <g id="_Grupo_65" transform="translate(0 1.398)">
                <g id="_Grupo_66">
                  <g id="_Grupo_67">
                    <g id="_Grupo_68" transform="translate(16.782)">
                      <path id="_Rectángulo_2"
                            d="M26.977.755h9.538a26.485,26.485,0,0,1,26.418,26.5V31.67A26.331,26.331,0,0,1,36.67,58H26.879A26.332,26.332,0,0,1,.489,31.67V27.252A26.485,26.485,0,0,1,26.977.755Z"
                            fill="#272727"/>
                    </g>
                    <g id="_Grupo_69" transform="translate(12.295 367.74)">
                      <path id="_Trazado_70"
                            d="M17.549,2.852V.839c.8,2.363,4.475,12.5,10.041,17.59,4.433,4.041,10.489,8.711,12.027,13.213s-8.391,6.264-12.586,5.593C22.22,36.383,16,33.642,12.6,29.489c-2.377-2.936-3.888-6.4-5.594-8.7S1.41,15.912.459,13.255c-.5-1.4.1-4.67.811-7.383C1.914,3.4,2.669.657,3.466.895V2.419C4.487,3.552,7.312,4.684,10.458,4.8,12.584,4.866,17.563,4.418,17.549,2.852Z"
                            fill="#263238"/>
                    </g>
                    <g id="_Grupo_70" transform="translate(15.383 356.554)">
                      <path id="_Trazado_71"
                            d="M28.543,33.167c-1.4-1.23-2.8-2.419-4.014-3.566-3.888-3.552-6.853-9.578-8.559-13.689a19.2,19.2,0,0,1-1.482-7.4V.5H.406V13.549h0v.336h.07c.685,2.922,7.132,10.683,10.8,15.744,2.447,3.4,7.118,7.718,12.7,8.459C29.257,38.843,31.956,37.18,28.543,33.167Z"
                            fill="#9e6767"/>
                    </g>
                    <g id="_Grupo_71" transform="translate(67.128 353.758)">
                      <path id="_Trazado_72"
                            d="M17.537,2.978V.965C18.32,3.328,22,13.549,27.578,18.555c4.433,4.041,10.475,8.711,12.013,13.227S31.2,38.032,27,37.305c-4.825-.853-11.048-3.58-14.432-7.746-2.377-2.922-3.9-6.39-5.594-8.7S1.385,16,.448,13.325c-.517-1.4.084-4.67.8-7.369C1.9,3.468,2.643.741,3.454.965V2.5C4.475,3.635,7.3,4.754,10.447,4.88,12.558,4.95,17.551,4.544,17.537,2.978Z"
                            fill="#263238"/>
                    </g>
                    <g id="_Grupo_72" transform="translate(69.925 342.572)">
                      <path id="_Trazado_73"
                            d="M28.8,33.306c-1.4-1.23-2.8-2.433-4.014-3.58-3.9-3.552-6.867-9.578-8.573-13.689a19.433,19.433,0,0,1-1.468-7.4V.671H.755V13.7h0v.35h0c.671,2.922,7.118,10.7,10.782,15.758C14,33.208,18.67,37.529,24.25,38.27,29.522,38.969,32.235,37.305,28.8,33.306Z"
                            fill="#9e6767"/>
                    </g>
                    <g id="_Grupo_73" transform="translate(11.188 148.215)">
                      <path id="_Trazado_74"
                            d="M7.4,4.013c-10.894,23.77.392,107.6.392,107.6-.322,3.859-4.741,11.466-6.377,28.454-1.944,20.079,3.049,70.486,3.049,70.486a15.19,15.19,0,0,0,14.2.559s13.4-75.925,15.915-95.878C36.766,97.808,40.99,59.5,40.99,59.5l11.985,55.636a103.119,103.119,0,0,0-3.79,17.2c-1.147,11.731,10.237,66.4,10.237,66.4s4.853,1.79,13.985.433c0,0,4.028-72.555,5.077-86.692C80.274,88.705,73.966,14.6,69.6.615Z"
                            fill="#37474f"/>
                    </g>
                    <g id="_Grupo_74" transform="translate(51.744 175.89)">
                      <path id="_Trazado_75"
                            d="M.434,31.82,3.972,9.728s14.964-3.1,21.747-9.48c0,0-7.118,8.851-17.691,11.759l-3.972,17,6.992,51.526Z"
                            fill="#263238"/>
                    </g>
                    <g id="_Grupo_75" transform="translate(16.782 68.514)">
                      <path id="_Trazado_76"
                            d="M21.019,1.063h0c-13.985.95-14.936,7.7-18.432,15.073a23.85,23.85,0,0,0-.671,18L11.7,62.3S7.16,73.31,1.916,83.713c24.432,13.633,54.933,6.46,62.275-3.482.308-2.111-1.58-18.611-2.8-29.363C65.7,40.073,66.831,33.236,65.013,26.1,61.646,12.864,48.57-.028,42.78.433Z"
                            fill="#f5f5f5"/>
                    </g>
                    <path id="_Trazado_77"
                          d="M29.4,150.046s2.881-11.452,3.916-13.983a4.8,4.8,0,0,1,4.937-3.286h0a14.248,14.248,0,0,1-6.1-9.089L29.187,108.8s5.51-17.492,4.951-23.477l-13.985.811-1.8,1.258a24.465,24.465,0,0,0,.392,15.2l9.789,28.161s-4.545,11.018-9.789,21.421c18,10.039,39.3,8.8,52.192,3.454Z"
                          fill="#e6e6e6"/>
                    <g id="_Grupo_76" transform="translate(0 69.913)">
                      <path id="_Trazado_78"
                            d="M.825,71.982c.084-1.1,4.909-30.762,8.741-50.729C12.139,7.774,17.509,2.838,28.026,1.216L31.76.629c4.993,16.4,1.552,23.77-5.035,35.054L20.516,65.634,5.482,80.833C.308,79.8.713,73.534.825,71.982Z"
                            fill="#9e6767"/>
                    </g>
                    <g id="_Grupo_77" transform="translate(26.571 12.584)">
                      <path id="_Trazado_79"
                            d="M42.948.811c3.3,1.958,7.384,10.249,6.992,27.657-.35,14.752-5.132,18.4-7.524,19.45s-6.992.4-11.538-.336v8.851S37.1,63.662,36.71,67.717s-8.992,5.02-14.81,1.049a37.6,37.6,0,0,1-9.552-10V37.375S9.3,41.43,4.335,38.13s-5.16-11.48-2.28-14.416,9.132-2,10.293,2.055c0,0,7.174.266,16.782-4.992A26.888,26.888,0,0,0,42.948.811Z"
                            fill="#9e6767"/>
                    </g>
                    <g id="_Grupo_78" transform="translate(55.94 34.956)">
                      <path id="_Trazado_80"
                            d="M4.084,2.391A1.86,1.86,0,1,1,2.126.559,1.888,1.888,0,0,1,4.084,2.391Z"
                            fill="#263238"/>
                    </g>
                    <g id="_Grupo_79" transform="translate(60.135 48.939)">
                      <path id="_Trazado_81"
                            d="M.378.923l4.307,1.4a2.21,2.21,0,0,1-2.8,1.538A2.363,2.363,0,0,1,.378.923Z"
                            fill="#874c4c"/>
                    </g>
                    <g id="_Grupo_80" transform="translate(71.323 27.965)">
                      <path id="_Trazado_82"
                            d="M3.916,3.691.154,1.091A2.2,2.2,0,0,1,3.272.447a2.4,2.4,0,0,1,.644,3.244Z"
                            fill="#263238"/>
                    </g>
                    <g id="_Grupo_81" transform="translate(69.925 33.558)">
                      <path id="_Trazado_83"
                            d="M4.447,2.447A1.86,1.86,0,1,1,2.489.615,1.888,1.888,0,0,1,4.447,2.447Z"
                            fill="#263238"/>
                    </g>
                    <g id="_Grupo_82" transform="translate(65.438 34.956)">
                      <path id="_Trazado_84" d="M.179,0,.473,11.158,6.347,9.34Z" fill="#874c4c"/>
                    </g>
                    <g id="_Grupo_83" transform="translate(40.556 52.844)">
                      <path id="_Trazado_85"
                            d="M16.88,7.323C12.139,6.694,2.363,3.9.853.038A10,10,0,0,0,4.265,4.96c2.923,2.5,12.586,5.313,12.586,5.313Z"
                            fill="#874c4c"/>
                    </g>
                  </g>
                </g>
              </g>
              <g id="_Grupo_84" transform="translate(75.519 114.367)">
                <g id="_Grupo_85">
                  <g id="_Grupo_86">
                    <path id="_Trazado_86"
                          d="M27.816,55.017l-8.894-4.74C10.433,45.761.308,38.084.308,27.206.308,19.585,6.475,11.49,14.1,9.14c6.992-2.167,12.81,3.7,13.691,10.207.878-6.991,6.668-16.513,13.674-18.68,7.622-2.349,13.8,1.916,13.8,9.536,0,10.892-10.1,24.8-18.572,34.565Z"
                          fill="#2a89f5"/>
                  </g>
                </g>
              </g>
              <g id="_Grupo_87" transform="translate(5.303 136.739)">
                <path id="_Trazado_87"
                      d="M.179,15.391,15.213.192s37.941,8.39,42.221,8.8,7.678-3.524,10.685-6.907a3.874,3.874,0,0,1,2.993-1.4,9.968,9.968,0,0,0-.378,4.2c.643,1.79,10.083,3.7,15.789,1.776s13.985.867,8.825,8.627S80.313,23.92,73.4,23.934a72.832,72.832,0,0,1-8.629-.573c-2.224-.294-4.447-.517-6.7-.685C43.966,21.627,6.6,17.4.179,15.391Z"
                      fill="#9e6767"/>
              </g>
              <path id="_Trazado_88"
                    d="M21.159,5.5c6.1,2.559,4.727,7.788,2.182,13.871S18.027,30.118,11.929,27.56A11.958,11.958,0,1,1,21.16,5.5Z"
                    fill="#272727"/>
              <path id="_Trazado_89"
                    d="M26.529,10.948,28.669.769A5.049,5.049,0,0,0,22.446,4.6a5.467,5.467,0,0,0,4.084,6.348Z"
                    fill="#272727"/>
            </g>
          </g>
        </g>
      </g>
    </g>
  </g>
</svg>
