<svg xmlns="http://www.w3.org/2000/svg" width="27.472" height="30.897" viewBox="0 0 27.472 30.897">
  <g id="c--4" transform="translate(-204.925 -157.745)">
    <path id="Path_73" data-name="Path 73" d="M232.4,166.819a2.679,2.679,0,0,0-.339-1.371,2.587,2.587,0,0,0-.99-.965q-5.484-3.161-10.977-6.322a2.7,2.7,0,0,0-2.92.025c-1.456.855-8.751,5.036-10.918,6.3a2.533,2.533,0,0,0-1.329,2.344v12.729a2.775,2.775,0,0,0,.322,1.346,2.654,2.654,0,0,0,1.007,1c2.175,1.261,9.462,5.433,10.918,6.3a2.686,2.686,0,0,0,2.92.025q5.484-3.174,10.977-6.322a2.54,2.54,0,0,0,1.007-1,2.775,2.775,0,0,0,.322-1.346Z" transform="translate(0)" fill="#9a4993"/>
    <path id="Path_74" data-name="Path 74" d="M226.792,582.333l-13.465,7.752a2.654,2.654,0,0,0,1.007,1c2.175,1.261,9.462,5.433,10.918,6.3a2.685,2.685,0,0,0,2.92.025q5.484-3.174,10.977-6.322a2.54,2.54,0,0,0,1.007-1Z" transform="translate(-8.097 -409.192)" fill="#6a1577"/>
    <path id="Path_75" data-name="Path 75" d="M474.735,584.627a4.54,4.54,0,0,0,7.9-.025l-3.919-2.268Z" transform="translate(-260.026 -409.192)" fill="#6a1577"/>
    <path id="Path_76" data-name="Path 76" d="M598.369,371.543a2.68,2.68,0,0,0-.339-1.371l-13.364,7.693,13.38,7.752a2.776,2.776,0,0,0,.322-1.346Z" transform="translate(-365.972 -204.724)" fill="#813084"/>
    <g id="Group_56" data-name="Group 56" transform="translate(209.521 164.06)">
      <path id="Path_77" data-name="Path 77" d="M344.755,343.244a4.549,4.549,0,1,1-.034-4.5l3.969-2.285a9.115,9.115,0,1,0,.034,9.081Zm5.019-4.384h-.906v4.376h.906Zm2.006,0h-.906v4.376h.906Z" transform="translate(-331.662 -331.895)" fill="#fff"/>
      <path id="Path_78" data-name="Path 78" d="M790.466,544.289h-4.376v.906h4.376Zm0,2h-4.376v.906h4.376Z" transform="translate(-769.613 -536.587)" fill="#fff"/>
    </g>
  </g>
</svg>
