<svg id="gopher" xmlns="http://www.w3.org/2000/svg" width="21.649" height="29.491" viewBox="0 0 21.649 29.491">
  <path id="Path_61" data-name="Path 61" d="M1.481,172.194c.042.871.914.465,1.3.195.372-.262.482-.042.516-.55a8.016,8.016,0,0,0,.042-1.007,2.456,2.456,0,0,0-1.641.423c-.245.169-.685.728-.22.939M18.85,182.9c.668.415,1.9,1.667.888,2.276-.965.88-1.506-.973-2.352-1.227A2.286,2.286,0,0,1,18.85,182.9ZM6.887,184.318c-.787.119-1.227.829-1.887,1.193-.618.364-.855-.118-.905-.22-.093-.042-.085.042-.237-.11-.575-.905.592-1.565,1.2-2.014C5.905,183,6.438,183.734,6.887,184.318Zm15.677-12.234c-.042.871-.914.465-1.3.195-.372-.262-.482-.042-.516-.55a7.985,7.985,0,0,1-.042-1.007,2.457,2.457,0,0,1,1.641.423c.237.169.685.728.22.939" transform="translate(-1.202 -156.229)" fill="#f6d2a2"/>
  <path id="Path_62" data-name="Path 62" d="M26.787,6.521c3.02-1.066.66-5.2-1.971-3.376-1.726-1.481-4.1-1.751-6.6-1.751-2.445.195-4.772.643-6.4,2.064C9.2,1.766,6.778,5.827,9.857,6.851c-.863,3.35.118,6.768-.017,10.178-.127,3.063-.931,7.166.77,9.916,1.447,2.352,4.56,3.19,7.124,3.283,3.274.118,7.242-.685,8.833-3.858,1.523-3.02,1.1-6.785.905-10.043-.195-3.291.169-6.633-.685-9.806Z" transform="translate(-7.735 -1.293)" fill="#69d7e2"/>
  <path id="Path_63" data-name="Path 63" d="M22,15.539a1.414,1.414,0,0,0-.4-.491,2.565,2.565,0,0,0-1.4-.448c-.017-.525-.034-1.1-.034-1.827v-.66a38.467,38.467,0,0,0-.152-4.137,16.75,16.75,0,0,0-.44-2.5,2.038,2.038,0,0,0,1.311-1.252,2.034,2.034,0,0,0-.2-1.616,2.129,2.129,0,0,0-3.173-.668,6.454,6.454,0,0,0-1.9-1.091A13.444,13.444,0,0,0,10.9.2V.285L10.89.2a13.77,13.77,0,0,0-5,1.134,6.216,6.216,0,0,0-1.4.914,2.237,2.237,0,0,0-1.878-.3A2.308,2.308,0,0,0,1.287,3.034,1.924,1.924,0,0,0,1.126,4.65,2.075,2.075,0,0,0,2.438,5.8,12.245,12.245,0,0,0,2.1,8.559a30.969,30.969,0,0,0,.178,3.511c.11,1.311.152,1.912.169,2.64a2.533,2.533,0,0,0-1.582.44,1.261,1.261,0,0,0-.4.491.405.405,0,0,0,.152.575c.034.406.262.592.609.558a1.849,1.849,0,0,0,.821-.347.952.952,0,0,1,.178-.1c.025-.008.042-.017.068-.025,0,0,.051-.017.068-.025a.171.171,0,0,0,.068-.034c-.017.4-.051.812-.127,1.76-.085,1.066-.127,1.65-.144,2.3a9.73,9.73,0,0,0,1.074,5.575,5.5,5.5,0,0,0,.99,1.185c-.076.051-.4.288-.5.364a2.692,2.692,0,0,0-.745.753A.926.926,0,0,0,3,29.186l.008.008.008.008c.093.093.144.118.211.118h.025c.008.017.017.025.025.042a1.228,1.228,0,0,0,.076.11.642.642,0,0,0,.905.068,3.722,3.722,0,0,0,.685-.508l.017-.017a2.216,2.216,0,0,1,1.151-.66l.135-.025c.051.025.1.042.161.068a12.079,12.079,0,0,0,4.01.8,13.576,13.576,0,0,0,5.076-.7,9.06,9.06,0,0,0,1.125-.5,2.119,2.119,0,0,1,.761.677.089.089,0,0,1,.025.034c.017.017.017.025.025.034.017.025.042.042.059.068a1.94,1.94,0,0,0,.677.584A.732.732,0,0,0,19,29.194c.491-.3.525-.778.2-1.32a3.622,3.622,0,0,0-1-1.032,5.849,5.849,0,0,0,1.117-1.531,12.8,12.8,0,0,0,1.108-5.956c-.008-.863-.042-1.616-.135-3.054v-.042a.505.505,0,0,1,.127.076,1.952,1.952,0,0,0,.821.347c.347.034.575-.152.609-.558A.421.421,0,0,0,22,15.539Zm-2.69-13.8a2.029,2.029,0,0,1,1.218.965,1.85,1.85,0,0,1,.195,1.481,1.851,1.851,0,0,1-1.2,1.134,13.762,13.762,0,0,0-.448-1.337.621.621,0,0,0,.169-.846.666.666,0,0,0-.88-.3,6.323,6.323,0,0,0-.719-.778,2.059,2.059,0,0,1,1.667-.313ZM1.27,4.6a1.725,1.725,0,0,1,.152-1.472,2.129,2.129,0,0,1,1.235-1,2.1,2.1,0,0,1,1.7.254,5.567,5.567,0,0,0-.88,1.007c-.44-.228-.888-.271-1.142.195-.262.5.042.812.474,1.049-.059.144-.118.3-.169.448-.059.186-.118.381-.169.575A1.946,1.946,0,0,1,1.27,4.6ZM2.294,16.131c-.008,0-.059.017-.059.025a.3.3,0,0,0-.076.034.843.843,0,0,0-.2.118,1.642,1.642,0,0,1-.745.313c-.254.025-.4-.085-.423-.389a.519.519,0,0,0,.321-.2l-.135-.1c-.051.068-.1.093-.254.144-.008,0-.008,0-.017.008C.568,16,.543,15.886.619,15.717a1.212,1.212,0,0,1,.347-.423,2.309,2.309,0,0,1,1.489-.406c0,.211.008.423,0,.626a.186.186,0,0,1-.008.068c-.008.118-.008.169-.017.228-.025.245-.042.279-.135.321ZM4.849,28.9l-.017.017a3.761,3.761,0,0,1-.66.491c-.321.195-.541.152-.694-.034a.515.515,0,0,1-.059-.085c-.008-.008-.017-.025-.025-.034v-.008a1.124,1.124,0,0,1,.228-.5c.008-.008.008-.008.008-.017a1.814,1.814,0,0,0,.178-.3l-.152-.068a2.3,2.3,0,0,1-.161.279c-.008.008-.008.008-.008.017a1.4,1.4,0,0,0-.254.508H3.2a.307.307,0,0,1-.076-.059c-.33-.525-.068-.973.677-1.531.093-.068.406-.288.491-.355a.12.12,0,0,0,.051-.017A7.106,7.106,0,0,0,5.923,28.2c0,.008.008.017.017.025a2.6,2.6,0,0,0-1.091.668Zm14.205-.922c.262.44.254.8-.076,1.041-.025-.051-.042-.11-.076-.195,0-.008,0-.008-.008-.017a1.537,1.537,0,0,0-.338-.609l-.118.118a1.336,1.336,0,0,1,.3.541c0,.008,0,.008.008.017.042.11.068.178.093.237a.538.538,0,0,1-.618.127,1.979,1.979,0,0,1-.618-.541.473.473,0,0,1-.051-.068.118.118,0,0,1-.025-.034.09.09,0,0,1-.025-.034,2.812,2.812,0,0,0-.7-.668,6.776,6.776,0,0,0,1.278-.931,3.955,3.955,0,0,1,.973,1.015Zm.118-2.741a6.4,6.4,0,0,1-3.74,3.122,13.46,13.46,0,0,1-5.017.685c-3.105-.11-5.8-1.193-7.056-3.24a9.55,9.55,0,0,1-1.049-5.482c.025-.651.059-1.235.144-2.3.093-1.2.118-1.548.144-2.09.017-.389.017-.787.008-1.21-.017-.745-.059-1.337-.169-2.665A30.819,30.819,0,0,1,2.26,8.559a11.34,11.34,0,0,1,.55-3.443,5.97,5.97,0,0,1,3.156-3.63A13.535,13.535,0,0,1,10.9.369,13.3,13.3,0,0,1,15.552,1,5.947,5.947,0,0,1,18.91,4a14.185,14.185,0,0,1,.931,3.985,38.108,38.108,0,0,1,.152,4.12v.66c.008,1.024.025,1.743.068,2.462.017.279.025.4.068,1.066.093,1.438.127,2.183.135,3.046a12.611,12.611,0,0,1-1.091,5.9Zm2.589-9.264c-.008,0-.017-.008-.025-.008a.483.483,0,0,1-.254-.144l-.135.1a.573.573,0,0,0,.322.2c-.034.3-.178.415-.423.389A1.742,1.742,0,0,1,20.5,16.2a1.263,1.263,0,0,0-.2-.118c-.008,0-.017-.008-.025-.008-.034-.465-.034-.584-.051-.829l-.025-.457a2.268,2.268,0,0,1,1.294.415,1.213,1.213,0,0,1,.347.423A.221.221,0,0,1,21.762,15.97Z" transform="translate(-0.408 -0.2)"/>
  <path id="Path_64" data-name="Path 64" d="M112.529,100.788a7.3,7.3,0,0,1,.017,1.362c-.118.22-.338.245-.533.33a.8.8,0,0,1-.609-.474,8.33,8.33,0,0,1,.042-1.523,1.941,1.941,0,0,1,.609.093A2.045,2.045,0,0,1,112.529,100.788Zm-2.394.034c-.237.9.313,2.361,1.218,1.159a8.043,8.043,0,0,1,.034-1.5A6.009,6.009,0,0,0,110.135,100.822Z" transform="translate(-100.764 -91.961)" fill="#fff"/>
  <path id="Path_65" data-name="Path 65" d="M111.608,98.6c-.017-.254-.025-.355-.025-.482v-.059l-.059-.017-1.066-.33v-.059l-.11.025h-.008v.008l-1.2.3-.042.008-.017.042a1.949,1.949,0,0,0,.093,1.54c.271.474.711.482,1.159-.059a.866.866,0,0,0,.634.457h.025l.025-.009c.034-.017.068-.025.127-.051.009,0,.009,0,.017-.008a.629.629,0,0,0,.431-.313l.008-.008v-.017a2.988,2.988,0,0,0,.034-.491C111.633,98.951,111.625,98.832,111.608,98.6Zm-1.354-.313c-.008.152-.017.212-.025.3a4.75,4.75,0,0,0,.008.787c-.4.508-.711.508-.922.127a1.783,1.783,0,0,1-.093-1.354l1.066-.271C110.279,97.978,110.271,98.088,110.254,98.283Zm1.185,1.252c-.059.1-.135.152-.338.22-.008,0-.008,0-.017.008-.051.017-.085.034-.11.042a.7.7,0,0,1-.516-.406,4.649,4.649,0,0,1-.008-.778c.008-.085.008-.144.025-.3.017-.195.025-.313.025-.423l.922.279c0,.11.008.211.025.431s.025.347.025.482A2.389,2.389,0,0,1,111.439,99.535Z" transform="translate(-99.742 -89.371)"/>
  <g id="Group_53" data-name="Group 53" transform="translate(4.137 1.874)">
    <path id="Path_66" data-name="Path 66" d="M1.6,4.47c.778,3.029,5.626,2.25,5.44-.787C6.818.045.853.747,1.6,4.47" transform="translate(-1.457 -1.203)" fill="#fff"/>
    <path id="Path_67" data-name="Path 67" d="M6.3,2.757a2.477,2.477,0,0,0-1.083-2A3.087,3.087,0,0,0,3.129.311a3.032,3.032,0,0,0-1.9.973A2.585,2.585,0,0,0,.7,3.552l.076-.017L.7,3.552C1.5,6.665,6.488,5.912,6.3,2.757ZM.853,3.535A2.421,2.421,0,0,1,1.344,1.4a2.864,2.864,0,0,1,1.8-.922A2.866,2.866,0,0,1,5.126.9,2.332,2.332,0,0,1,6.141,2.782c.178,2.953-4.535,3.663-5.288.753Z" transform="translate(-0.636 -0.285)"/>
    <ellipse id="Ellipse_3" data-name="Ellipse 3" cx="0.821" cy="0.888" rx="0.821" ry="0.888" transform="translate(0.657 1.879)"/>
    <ellipse id="Ellipse_4" data-name="Ellipse 4" cx="0.195" cy="0.228" rx="0.195" ry="0.228" transform="translate(1.655 2.742)" fill="#fff"/>
  </g>
  <g id="Group_54" data-name="Group 54" transform="translate(10.986 1.586)">
    <path id="Path_68" data-name="Path 68" d="M1.129,4.6c.6,3.477,6.286,2.555,5.466-.948C5.859.5.926,1.375,1.129,4.6" transform="translate(-1.039 -1.61)" fill="#fff"/>
    <path id="Path_69" data-name="Path 69" d="M5.762,2.794C5.009-.447-.067.442.136,3.767v.008A2.746,2.746,0,0,0,3.5,5.983,3.021,3.021,0,0,0,5.322,4.977a2.441,2.441,0,0,0,.44-2.183ZM5.2,4.875a2.842,2.842,0,0,1-1.726.948A2.6,2.6,0,0,1,.3,3.75C.111.619,4.9-.218,5.61,2.827A2.28,2.28,0,0,1,5.2,4.875Z" transform="translate(-0.13 -0.769)"/>
    <ellipse id="Ellipse_5" data-name="Ellipse 5" cx="0.804" cy="0.888" rx="0.804" ry="0.888" transform="translate(0.683 1.948)"/>
    <ellipse id="Ellipse_6" data-name="Ellipse 6" cx="0.186" cy="0.228" rx="0.186" ry="0.228" transform="translate(1.673 2.811)" fill="#fff"/>
  </g>
  <g id="Group_55" data-name="Group 55" transform="translate(8.498 6.031)">
    <path id="Path_70" data-name="Path 70" d="M102.323,82a1.053,1.053,0,0,0-.863,1.472c.457.829,1.481-.076,2.115.008.736.017,1.337.778,1.921.135.651-.711-.279-1.4-1.015-1.709Z" transform="translate(-101.276 -80.997)" fill="#f6d2a2"/>
    <path id="Path_71" data-name="Path 71" d="M104.765,81.745a2.7,2.7,0,0,0-1.058-.728l-.017-.008h-.017l-2.166.085a1.14,1.14,0,0,0-.931,1.6.707.707,0,0,0,.6.4,1.871,1.871,0,0,0,.711-.144c.025-.009.059-.017.1-.034a1.676,1.676,0,0,1,.761-.161h.008a1.846,1.846,0,0,1,.694.186,2.137,2.137,0,0,0,.643.2.769.769,0,0,0,.651-.279A.782.782,0,0,0,104.765,81.745Zm-.144,1a.61.61,0,0,1-.516.228,1.851,1.851,0,0,1-.592-.186,1.974,1.974,0,0,0-.744-.2,1.833,1.833,0,0,0-.838.169c-.042.017-.076.025-.1.034-.618.211-.914.195-1.117-.178a.975.975,0,0,1,.8-1.354l2.14-.085a2.556,2.556,0,0,1,.981.677A.609.609,0,0,1,104.621,82.743Z" transform="translate(-100.461 -80.176)" fill="#231f20"/>
    <path id="Path_72" data-name="Path 72" d="M114.19,71.844c-.262-.965-2.462-.821-2.411.33C111.889,73.028,114.444,72.8,114.19,71.844Z" transform="translate(-110.817 -71.206)"/>
  </g>
</svg>
