<svg id="rwanda" xmlns="http://www.w3.org/2000/svg" width="33" height="33" viewBox="0 0 33 33">
  <path id="Path_1" data-name="Path 1" d="M0,235.174a16.426,16.426,0,0,0,2.006,7.891L16.5,244.5l14.494-1.435A16.426,16.426,0,0,0,33,235.174l-16.5-1.435Z" transform="translate(0 -218.674)" fill="#ffda44"/>
  <path id="Path_2" data-name="Path 2" d="M30.994,8.609A16.5,16.5,0,0,0,0,16.5H33A16.426,16.426,0,0,0,30.994,8.609Z" fill="#338af3"/>
  <path id="Path_3" data-name="Path 3" d="M45.621,387.044a16.5,16.5,0,0,0,14.494-8.609H31.127A16.5,16.5,0,0,0,45.621,387.044Z" transform="translate(-29.121 -354.044)" fill="#496e2d"/>
  <path id="Path_4" data-name="Path 4" d="M289.391,81.726l2.015.948-1.073,1.952,2.188-.419.277,2.21,1.524-1.626,1.524,1.626.277-2.21,2.188.418-1.073-1.952,2.015-.948-2.015-.948,1.073-1.952-2.188.419-.277-2.21-1.524,1.626L292.8,77.035l-.277,2.21-2.188-.419,1.073,1.952Z" transform="translate(-270.739 -72.07)" fill="#ffda44"/>
</svg>
