<svg xmlns="http://www.w3.org/2000/svg" width="42" height="42" viewBox="0 0 42 42">
  <g id="surface1" transform="translate(-0.089 -0.001)">
    <path id="Path_17" data-name="Path 17"
          d="M.877,11.6a1.666,1.666,0,0,0-.027.251v1.728a1.715,1.715,0,0,0,1.134,1.6v2.542a1.613,1.613,0,0,0,1.553,1.591V34a1.613,1.613,0,0,0-1.553,1.591v2.535A1.733,1.733,0,0,0,.85,39.74v1.69A.577.577,0,0,0,1.433,42H40.719a.577.577,0,0,0,.582-.571V39.74a1.733,1.733,0,0,0-1.134-1.614v-2.55a1.613,1.613,0,0,0-1.553-1.591V19.314a1.613,1.613,0,0,0,1.553-1.591V15.18a1.715,1.715,0,0,0,1.134-1.6V11.865a1.63,1.63,0,0,0-.027-.251.584.584,0,0,0,.765-.289.564.564,0,0,0-.295-.75L21.344.067a.593.593,0,0,0-.544,0L.4,10.564a.566.566,0,0,0-.244.771A.587.587,0,0,0,.877,11.6ZM3.149,16.17v-.879H9.868v.872Zm14.959,3.148V34a1.613,1.613,0,0,0-1.553,1.591V38.02h-5.53V35.592A1.613,1.613,0,0,0,9.471,34V19.314a1.613,1.613,0,0,0,1.553-1.591V15.291h5.522v2.428A1.614,1.614,0,0,0,18.1,19.314ZM17.72,16.17v-.879h6.719v.872ZM32.68,19.318V34a1.614,1.614,0,0,0-1.554,1.591V38.02H25.6V35.592A1.614,1.614,0,0,0,24.043,34V19.314A1.613,1.613,0,0,0,25.6,17.723V15.291h5.522v2.428a1.613,1.613,0,0,0,1.553,1.595Zm-.388-3.148v-.879H39.01v.872ZM39.01,37.148v.871H32.283v-.871Zm-14.571,0v.871H17.713v-.871ZM18.683,18.183h-.5a.461.461,0,0,1-.466-.457v-.415h6.718v.415a.461.461,0,0,1-.466.457Zm4.2,1.142V33.993H19.266V19.325Zm-4.2,15.81h5.282a.461.461,0,0,1,.466.457v.415H17.713v-.415a.461.461,0,0,1,.466-.457ZM9.86,37.148v.871H3.141v-.871ZM3.141,17.738v-.426H9.86v.415a.461.461,0,0,1-.466.457H3.6a.461.461,0,0,1-.454-.461Zm5.165,1.6V33.993H4.695V19.325ZM3.141,35.6a.461.461,0,0,1,.466-.457H9.394a.461.461,0,0,1,.466.457v.415H3.141Zm36.994,4.16v1.119H2.008V39.763a.6.6,0,0,1,.6-.59H39.534a.6.6,0,0,1,.6.579ZM39,35.6v.415H32.283V35.6a.461.461,0,0,1,.466-.457h5.8a.461.461,0,0,1,.454.445ZM33.837,34V19.325h3.616V33.993ZM39,17.738a.461.461,0,0,1-.466.457H32.753a.461.461,0,0,1-.466-.457v-.426h6.718ZM21.072,1.209l17.348,8.936H3.724ZM2.008,11.865a.577.577,0,0,1,.582-.571H39.553a.577.577,0,0,1,.582.571v1.728a.577.577,0,0,1-.582.571H2.59a.577.577,0,0,1-.582-.571Zm0,0"
          transform="translate(0)" fill="#3f7fcf"/>
  </g>
</svg>
