<svg xmlns="http://www.w3.org/2000/svg" width="42" height="46" viewBox="0 0 42 46">
  <g id="single-01" transform="translate(-3 -1)">
    <path id="Path_12" data-name="Path 12"
          d="M24,24h0A10,10,0,0,1,14,14V12A10,10,0,0,1,24,2h0A10,10,0,0,1,34,12v2A10,10,0,0,1,24,24Z" fill="none"
          stroke="#3f7fcf" stroke-linecap="square" stroke-miterlimit="10" stroke-width="2"/>
    <path id="Path_13" data-name="Path 13"
          d="M44,38.856a7,7,0,0,0-5.007-6.712,53.5,53.5,0,0,0-29.986,0A7,7,0,0,0,4,38.856V46H44Z" fill="none"
          stroke="#3f7fcf" stroke-linecap="square" stroke-miterlimit="10" stroke-width="2"/>
  </g>
</svg>
