<svg xmlns="http://www.w3.org/2000/svg" width="46" height="46" viewBox="0 0 46 46">
  <g id="settings-gear-63" transform="translate(-1 -1)">
    <circle id="Ellipse_3" data-name="Ellipse 3" cx="6" cy="6" r="6" transform="translate(18 18)" fill="none"
            stroke="#3f7fcf" stroke-linecap="square" stroke-miterlimit="10" stroke-width="2"/>
    <path id="Path_11" data-name="Path 11"
          d="M46,27V21l-6.4-.534a15.89,15.89,0,0,0-2.072-4.991l4.155-4.91L37.435,6.322l-4.91,4.155A15.876,15.876,0,0,0,27.534,8.4L27,2H21l-.534,6.405a15.89,15.89,0,0,0-4.991,2.072l-4.91-4.155L6.322,10.565l4.155,4.91A15.876,15.876,0,0,0,8.4,20.466L2,21v6l6.405.534a15.89,15.89,0,0,0,2.072,4.991l-4.155,4.91,4.243,4.243,4.91-4.155A15.876,15.876,0,0,0,20.466,39.6L21,46h6l.534-6.4a15.89,15.89,0,0,0,4.991-2.072l4.91,4.155,4.243-4.243-4.155-4.91A15.876,15.876,0,0,0,39.6,27.534Z"
          fill="none" stroke="#3f7fcf" stroke-linecap="square" stroke-miterlimit="10" stroke-width="2"/>
  </g>
</svg>
